{"glyphs":{":":{"x_min":0,"x_max":224,"ha":224,"o":"m 65 337 l 65 445 l 159 445 l 159 337 z m 65 0 l 65 108 l 159 108 l 159 0 z"},"$":{"x_min":0,"x_max":470,"ha":470,"o":"m 426 148 q 426 78 380 38 q 333 -2 259 -7 l 259 -65 l 217 -65 l 217 -7 q 162 -4 118 11 q 73 26 48 42 l 65 156 l 125 151 l 117 78 q 166 55 217 50 l 217 246 q 158 259 106 284 q 53 308 53 384 q 53 456 102 490 q 151 525 217 528 l 217 593 l 259 593 l 259 528 q 306 525 341 512 q 376 499 402 481 l 408 366 l 349 362 l 338 446 q 304 467 259 472 l 259 301 q 292 294 331 280 q 370 265 398 234 q 426 204 426 148 z m 128 392 q 128 352 154 336 q 180 319 217 310 l 217 472 q 128 464 128 392 z m 351 141 q 351 184 324 204 q 298 225 259 236 l 259 51 q 300 56 326 78 q 351 99 351 141 z"},"?":{"x_min":0,"x_max":446,"ha":446,"o":"m 106 460 l 48 465 l 56 585 q 86 616 134 638 q 181 660 232 660 q 308 660 362 624 q 416 588 416 525 q 416 474 385 440 q 354 406 314 380 q 274 355 243 330 q 212 305 212 272 q 212 231 265 231 l 265 181 q 197 177 167 202 q 137 228 137 266 q 137 311 168 341 q 198 371 238 395 q 277 419 308 446 q 338 474 338 515 q 338 549 310 572 q 282 595 227 595 q 166 595 119 556 z m 167 0 l 167 97 l 256 97 l 256 0 z"},"<":{"x_min":0,"x_max":407,"ha":407,"o":"m 349 14 l 30 269 l 30 289 l 348 549 l 348 480 l 107 280 l 349 83 z"},"'":{"x_min":0,"x_max":191,"ha":191,"o":"m 126 377 l 65 377 l 60 650 l 131 650 z"},"=":{"x_min":0,"x_max":578,"ha":578,"o":"m 61 364 l 61 418 l 518 418 l 518 364 z m 61 144 l 61 196 l 518 196 l 518 144 z"},"a":{"x_min":0,"x_max":483,"ha":483,"o":"m 81 411 q 116 434 155 444 q 194 454 238 454 q 397 454 397 305 l 397 93 q 397 45 435 45 q 452 45 465 51 l 466 5 q 439 -10 408 -10 q 329 -10 327 80 l 327 82 q 306 46 268 18 q 229 -10 175 -10 q 131 -10 86 17 q 40 44 40 115 q 40 199 106 226 q 173 252 248 252 q 268 252 288 251 q 309 250 327 248 l 327 288 q 327 336 306 366 q 286 396 226 396 q 177 396 140 378 l 123 301 l 65 308 z m 327 167 l 327 201 q 308 202 287 204 q 266 206 244 206 q 194 206 154 190 q 113 175 113 123 q 113 80 140 64 q 167 48 196 48 q 242 48 282 80 q 323 112 327 167 z"},"L":{"x_min":0,"x_max":545,"ha":545,"o":"m 511 0 l 42 0 l 42 64 l 124 64 l 124 586 l 42 586 l 42 650 l 306 650 l 306 586 l 197 586 l 197 64 l 446 64 l 466 213 l 531 208 z"},"3":{"x_min":0,"x_max":489,"ha":489,"o":"m 66 479 q 94 498 140 514 q 185 531 235 531 q 314 531 366 490 q 417 449 417 372 q 417 323 390 282 q 362 240 292 218 l 292 214 q 381 199 413 153 q 445 107 445 50 q 445 -37 388 -89 q 332 -141 234 -141 q 142 -141 94 -100 q 46 -59 34 0 l 91 20 q 105 -20 137 -49 q 169 -78 232 -78 q 312 -78 340 -37 q 367 4 367 54 q 367 113 325 146 q 283 179 178 182 l 178 236 q 272 240 306 280 q 340 321 340 363 q 340 412 308 440 q 277 468 221 468 q 172 468 125 443 l 107 362 l 49 369 z"},";":{"x_min":0,"x_max":234,"ha":234,"o":"m 79 337 l 79 445 l 173 445 l 173 337 z m 154 114 l 101 -102 l 32 -102 l 85 114 z"},"J":{"x_min":0,"x_max":456,"ha":456,"o":"m 418 586 l 346 586 l 346 166 q 346 78 302 34 q 258 -10 179 -10 q 115 -10 76 18 q 38 45 17 89 l 70 129 q 91 88 116 74 q 140 59 173 59 q 226 59 250 88 q 273 117 273 166 l 273 586 l 144 586 l 144 650 l 418 650 z"},"V":{"x_min":0,"x_max":648,"ha":648,"o":"m 649 586 l 588 586 l 353 0 l 295 0 l 60 586 l -4 586 l -4 650 l 231 650 l 231 586 l 140 586 l 326 108 l 331 108 l 513 586 l 421 586 l 421 650 l 649 650 z"},"\"":{"x_min":0,"x_max":371,"ha":371,"o":"m 126 377 l 65 377 l 60 650 l 131 650 z m 306 377 l 245 377 l 240 650 l 311 650 z"},"7":{"x_min":0,"x_max":471,"ha":471,"o":"m 455 479 l 208 -130 l 135 -130 l 377 458 l 100 458 l 100 347 l 34 347 l 34 521 l 445 521 z"},"S":{"x_min":0,"x_max":533,"ha":533,"o":"m 490 182 q 490 88 424 39 q 357 -10 258 -10 q 122 -10 49 43 l 63 171 l 123 165 l 119 83 q 152 66 185 60 q 218 54 254 54 q 318 54 364 82 q 411 109 411 175 q 411 249 360 272 q 309 294 249 308 q 203 318 158 334 q 113 349 83 382 q 53 416 53 480 q 53 572 114 616 q 176 660 260 660 q 314 660 369 645 q 424 630 455 606 l 461 477 l 401 471 l 391 568 q 360 584 328 590 q 296 595 267 595 q 206 595 168 568 q 131 540 131 488 q 131 427 176 406 q 221 385 276 372 q 320 362 370 346 q 419 331 454 294 q 490 256 490 182 z"},"}":{"x_min":0,"x_max":280,"ha":280,"o":"m 170 271 q 117 280 94 304 q 72 327 72 355 q 72 388 94 436 q 115 485 136 538 q 158 590 158 634 q 158 698 95 698 l 31 698 l 31 750 l 95 750 q 156 750 187 718 q 218 686 218 634 q 218 584 197 530 q 176 477 154 430 q 133 383 133 353 q 133 314 170 302 q 208 291 231 291 l 250 291 l 250 251 l 231 251 q 208 251 170 240 q 133 229 133 190 q 133 160 154 112 q 176 63 197 8 q 218 -46 218 -96 q 218 -212 95 -212 l 31 -212 l 31 -160 l 95 -160 q 158 -160 158 -96 q 158 -52 136 2 q 115 56 94 105 q 72 154 72 187 q 72 215 94 239 q 116 263 170 271 z"},"Z":{"x_min":0,"x_max":577,"ha":577,"o":"m 514 0 l 34 0 l 32 44 l 416 583 l 416 586 l 136 586 l 108 453 l 46 462 l 71 650 l 519 650 l 521 610 l 135 67 l 135 64 l 449 64 l 477 202 l 540 193 z"},"x":{"x_min":0,"x_max":514,"ha":514,"o":"m 498 0 l 302 0 l 302 57 l 360 57 l 256 185 l 151 57 l 204 57 l 204 0 l 19 0 l 19 57 l 80 57 l 220 222 l 79 388 l 19 388 l 19 445 l 222 445 l 222 388 l 162 388 l 262 262 l 365 388 l 312 388 l 312 445 l 490 445 l 490 388 l 438 388 l 299 226 l 442 57 l 498 57 z"},")":{"x_min":0,"x_max":275,"ha":275,"o":"m 74 -183 l 7 -183 q 173 28 173 265 q 173 381 132 498 q 90 614 7 718 l 76 718 q 159 608 197 494 q 235 379 235 265 q 235 150 196 37 q 156 -76 74 -183 z"},"&":{"x_min":0,"x_max":730,"ha":730,"o":"m 427 362 l 707 362 l 707 299 l 602 299 q 583 252 548 198 q 514 144 468 98 q 538 58 601 58 q 643 58 682 79 l 699 18 q 649 -10 591 -10 q 545 -10 500 6 q 454 22 410 50 q 371 23 328 6 q 284 -10 237 -10 q 164 -10 106 32 q 47 73 47 154 q 47 219 86 258 q 125 296 176 324 q 138 410 138 479 q 138 557 186 608 q 233 660 318 660 q 388 660 433 623 q 478 586 478 525 q 478 449 410 404 q 342 360 258 319 q 320 204 423 127 q 459 162 485 206 q 511 251 525 299 l 427 299 z m 405 522 q 405 551 384 576 q 362 602 316 602 q 265 602 238 568 q 210 535 210 485 q 210 426 240 357 q 304 391 354 430 q 405 468 405 522 z m 195 285 q 160 264 140 235 q 119 206 119 165 q 119 106 160 79 q 200 52 255 52 q 311 52 365 82 q 260 165 195 285 z"},"_":{"x_min":0,"x_max":534,"ha":534,"o":"m 52 -74 l 484 -74 l 484 -125 l 52 -125 z"},"v":{"x_min":0,"x_max":509,"ha":509,"o":"m 500 388 l 446 388 l 283 0 l 229 0 l 59 388 l 7 388 l 7 445 l 212 445 l 212 388 l 135 388 l 259 95 l 265 95 l 376 388 l 305 388 l 305 445 l 500 445 z"},"O":{"x_min":0,"x_max":729,"ha":729,"o":"m 690 325 q 690 233 649 157 q 608 81 534 36 q 460 -10 362 -10 q 215 -10 127 88 q 39 187 39 325 q 39 465 130 562 q 220 660 364 660 q 510 660 600 562 q 690 464 690 325 z m 611 324 q 611 441 544 518 q 477 594 364 594 q 248 594 183 516 q 118 438 118 326 q 118 216 183 136 q 248 56 366 56 q 481 56 546 134 q 611 211 611 324 z"},"(":{"x_min":0,"x_max":274,"ha":274,"o":"m 200 718 l 267 718 q 101 507 101 270 q 101 154 142 37 q 184 -80 267 -183 l 198 -183 q 115 -73 77 42 q 39 156 39 270 q 39 386 78 499 q 118 612 200 718 z"},"C":{"x_min":0,"x_max":646,"ha":646,"o":"m 575 50 q 497 -10 358 -10 q 216 -10 128 84 q 40 179 40 321 q 40 411 78 488 q 116 566 185 613 q 254 660 349 660 q 430 660 484 639 q 539 618 579 584 l 597 459 l 534 453 l 516 548 q 484 569 447 582 q 410 594 355 594 q 248 594 182 518 q 117 442 117 324 q 117 203 184 130 q 252 56 368 56 q 453 56 511 85 l 530 181 l 592 175 z"},"W":{"x_min":0,"x_max":934,"ha":934,"o":"m 929 586 l 874 586 l 700 0 l 641 0 l 470 520 l 466 520 l 300 0 l 241 0 l 55 586 l 0 586 l 0 650 l 225 650 l 225 586 l 133 586 l 270 119 l 274 119 l 424 586 l 359 586 l 359 650 l 583 650 l 583 586 l 518 586 l 670 116 l 674 116 l 800 586 l 706 586 l 706 650 l 929 650 z"},"A":{"x_min":0,"x_max":648,"ha":648,"o":"m 655 0 l 424 0 l 424 64 l 511 64 l 464 189 l 186 189 l 136 64 l 230 64 l 230 0 l 1 0 l 1 64 l 62 64 l 275 586 l 171 586 l 171 650 l 356 650 l 589 64 l 655 64 z m 443 246 l 331 544 l 325 544 l 208 246 z"},"f":{"x_min":0,"x_max":319,"ha":319,"o":"m 260 698 q 291 698 316 692 q 340 686 363 666 l 380 563 l 323 556 l 304 632 q 284 640 253 640 q 174 640 174 534 l 174 445 l 289 445 l 289 389 l 174 389 l 174 57 l 275 57 l 275 0 l 26 0 l 26 57 l 103 57 l 103 389 l 39 389 l 39 445 l 103 445 l 103 528 q 103 606 150 652 q 196 698 260 698 z"},"Q":{"x_min":0,"x_max":736,"ha":736,"o":"m 690 325 q 690 256 666 196 q 642 135 600 89 l 675 13 l 629 -33 l 550 47 q 469 -10 362 -10 q 215 -10 127 88 q 39 187 39 325 q 39 465 130 562 q 220 660 364 660 q 510 660 600 562 q 690 464 690 325 z m 611 324 q 611 441 544 518 q 477 594 364 594 q 248 594 183 516 q 118 438 118 326 q 118 216 183 136 q 248 56 366 56 q 445 56 502 96 l 381 218 l 428 264 l 550 140 q 611 212 611 324 z"},"w":{"x_min":0,"x_max":766,"ha":766,"o":"m 756 388 l 705 388 l 574 0 l 520 0 l 384 340 l 379 340 l 246 0 l 194 0 l 58 388 l 9 388 l 9 445 l 219 445 l 219 388 l 134 388 l 227 107 l 232 107 l 364 445 l 411 445 l 550 107 l 555 107 l 637 388 l 556 388 l 556 445 l 756 445 z"},"-":{"x_min":0,"x_max":348,"ha":348,"o":"m 58 261 l 289 261 l 289 200 l 58 200 z"},"E":{"x_min":0,"x_max":588,"ha":588,"o":"m 526 0 l 42 0 l 42 64 l 124 64 l 124 586 l 42 586 l 42 650 l 517 650 l 537 466 l 473 459 l 453 586 l 197 586 l 197 362 l 504 362 l 504 298 l 197 298 l 197 64 l 462 64 l 482 191 l 545 184 z"},"s":{"x_min":0,"x_max":438,"ha":438,"o":"m 399 129 q 399 64 344 27 q 290 -10 210 -10 q 163 -10 116 2 q 70 15 41 34 l 55 135 l 111 129 l 108 70 q 154 48 207 48 q 254 48 290 66 q 327 85 327 123 q 327 160 299 175 q 271 190 230 197 q 188 204 146 214 q 104 224 76 248 q 48 273 48 325 q 48 396 100 425 q 152 454 213 454 q 259 454 300 442 q 340 430 368 413 l 379 309 l 321 302 l 310 374 q 268 396 219 396 q 177 396 150 380 q 123 364 123 330 q 123 295 151 280 q 179 266 220 260 q 261 253 302 243 q 343 233 371 208 q 399 182 399 129 z"},">":{"x_min":0,"x_max":407,"ha":407,"o":"m 377 269 l 58 14 l 58 83 l 300 280 l 59 480 l 59 549 l 377 289 z"},"l":{"x_min":0,"x_max":266,"ha":266,"o":"m 246 0 l 20 0 l 20 57 l 98 57 l 98 631 l 19 631 l 19 688 l 168 688 l 168 57 l 246 57 z"},"8":{"x_min":0,"x_max":538,"ha":538,"o":"m 495 163 q 495 83 429 36 q 363 -10 264 -10 q 168 -10 106 33 q 45 76 45 160 q 45 234 92 271 q 138 308 197 333 q 143 359 102 396 q 62 432 62 494 q 62 567 120 614 q 177 660 268 660 q 356 660 415 616 q 474 572 474 498 q 474 435 432 402 q 390 368 336 345 q 398 316 446 276 q 495 236 495 163 z m 400 493 q 400 547 361 572 q 322 598 268 598 q 212 598 176 572 q 139 547 139 502 q 139 452 182 423 q 224 394 280 369 q 336 394 368 420 q 400 446 400 493 z m 418 160 q 418 218 366 249 q 314 280 250 309 q 194 285 156 256 q 118 226 118 170 q 118 113 160 82 q 201 52 266 52 q 330 52 374 80 q 418 108 418 160 z"},"\\":{"x_min":0,"x_max":387,"ha":387,"o":"m 92 688 l 161 688 l 376 0 l 307 0 z"},"e":{"x_min":0,"x_max":470,"ha":470,"o":"m 435 128 q 426 71 378 30 q 330 -10 248 -10 q 154 -10 96 49 q 38 108 38 216 q 38 320 93 387 q 148 454 242 454 q 334 454 382 396 q 430 338 431 259 q 431 233 425 206 l 112 206 q 118 50 253 50 q 306 50 336 75 q 366 100 376 141 z m 357 258 q 362 308 334 352 q 305 396 240 396 q 178 396 149 355 q 120 314 113 258 z"},"b":{"x_min":0,"x_max":534,"ha":534,"o":"m 496 234 q 496 175 476 119 q 456 63 412 26 q 368 -10 298 -10 q 186 -10 142 74 l 132 0 l 62 0 q 66 29 71 63 q 76 97 76 130 l 76 631 l -1 631 l -1 688 l 146 688 l 146 353 q 166 394 204 424 q 241 454 305 454 q 388 454 442 397 q 496 340 496 234 z m 422 227 q 422 310 383 352 q 344 394 288 394 q 224 394 186 347 q 148 300 146 251 l 146 184 q 146 128 186 89 q 225 50 283 50 q 356 50 389 104 q 422 158 422 227 z"},"%":{"x_min":0,"x_max":687,"ha":687,"o":"m 175 244 q 115 244 76 278 q 36 312 36 383 q 36 456 77 494 q 118 531 183 531 q 245 531 284 496 q 322 462 322 392 q 322 324 284 284 q 246 244 175 244 z m 581 521 l 379 267 l 177 0 l 102 0 l 332 287 l 506 521 z m 176 294 q 262 294 262 391 q 262 481 181 481 q 96 481 96 384 q 96 294 176 294 z m 506 -10 q 445 -10 406 24 q 367 58 367 129 q 367 202 408 240 q 449 277 514 277 q 576 277 614 242 q 653 208 653 138 q 653 70 614 30 q 576 -10 506 -10 z m 506 40 q 593 40 593 137 q 593 227 512 227 q 427 227 427 130 q 427 40 506 40 z"},"m":{"x_min":0,"x_max":863,"ha":863,"o":"m 854 0 l 641 0 l 641 57 l 706 57 l 706 264 q 706 336 678 366 q 649 395 605 395 q 544 395 511 349 q 478 303 477 261 l 477 57 l 554 57 l 554 0 l 342 0 l 342 57 l 406 57 l 406 264 q 406 337 378 366 q 350 395 307 395 q 245 395 212 350 q 180 306 178 263 l 178 57 l 260 57 l 260 0 l 30 0 l 30 57 l 108 57 l 108 388 l 29 388 l 29 445 l 178 445 l 178 362 q 200 402 237 428 q 274 454 327 454 q 379 454 418 428 q 456 402 470 347 q 490 394 530 424 q 569 454 627 454 q 691 454 734 414 q 776 374 776 285 l 776 57 l 854 57 z"},"#":{"x_min":0,"x_max":591,"ha":591,"o":"m 493 521 l 470 403 l 550 403 l 550 346 l 459 346 l 428 182 l 520 182 l 520 125 l 417 125 l 393 0 l 330 0 l 354 125 l 178 125 l 154 0 l 91 0 l 115 125 l 38 125 l 38 182 l 126 182 l 157 346 l 68 346 l 68 403 l 168 403 l 191 521 l 254 521 l 231 403 l 407 403 l 430 521 z m 189 182 l 365 182 l 396 346 l 220 346 z"},",":{"x_min":0,"x_max":201,"ha":201,"o":"m 24 -102 l 76 114 l 146 114 l 93 -102 z"},"n":{"x_min":0,"x_max":573,"ha":573,"o":"m 564 0 l 339 0 l 339 57 l 416 57 l 416 264 q 416 336 387 366 q 358 395 313 395 q 253 395 216 356 q 180 316 178 265 l 178 57 l 256 57 l 256 0 l 30 0 l 30 57 l 108 57 l 108 388 l 28 388 l 28 445 l 178 445 l 178 366 q 226 454 334 454 q 399 454 443 414 q 487 374 487 285 l 487 57 l 564 57 z"},"h":{"x_min":0,"x_max":560,"ha":560,"o":"m 551 0 l 325 0 l 325 57 l 403 57 l 403 264 q 403 336 374 366 q 344 395 298 395 q 240 395 204 356 q 167 316 165 267 l 165 57 l 242 57 l 242 0 l 17 0 l 17 57 l 94 57 l 94 631 l 17 631 l 17 688 l 165 688 l 165 365 q 214 454 321 454 q 386 454 430 414 q 474 374 474 285 l 474 57 l 551 57 z"},"z":{"x_min":0,"x_max":464,"ha":464,"o":"m 413 0 l 39 0 l 36 43 l 316 388 l 106 388 l 93 299 l 37 306 l 49 445 l 407 445 l 410 403 l 128 57 l 357 57 l 380 147 l 437 138 z"},"B":{"x_min":0,"x_max":604,"ha":604,"o":"m 564 184 q 564 107 509 54 q 454 0 346 0 l 42 0 l 42 64 l 124 64 l 124 586 l 42 586 l 42 650 l 341 650 q 440 650 488 607 q 537 564 537 494 q 537 442 506 403 q 475 364 425 354 l 425 350 q 496 339 530 292 q 564 246 564 184 z m 459 477 q 459 538 424 562 q 390 586 329 586 l 197 586 l 197 366 l 326 366 q 384 366 422 394 q 459 423 459 477 z m 486 188 q 486 243 454 274 q 421 306 357 306 l 197 306 l 197 64 l 333 64 q 403 64 444 94 q 486 123 486 188 z"},"K":{"x_min":0,"x_max":642,"ha":642,"o":"m 635 0 l 401 0 l 401 64 l 478 64 l 306 299 l 198 299 l 198 64 l 273 64 l 273 0 l 42 0 l 42 64 l 124 64 l 124 586 l 42 586 l 42 650 l 274 650 l 274 586 l 198 586 l 198 362 l 304 362 l 471 587 l 394 587 l 394 651 l 623 651 l 623 587 l 549 587 l 362 338 l 562 64 l 635 64 z"},"R":{"x_min":0,"x_max":617,"ha":617,"o":"m 607 0 l 477 0 l 337 272 l 198 272 l 198 64 l 285 64 l 285 0 l 42 0 l 42 64 l 124 64 l 124 586 l 42 586 l 42 650 l 323 650 q 444 650 496 598 q 548 545 548 466 q 548 403 513 354 q 478 304 409 286 l 525 64 l 607 64 z m 471 463 q 471 527 434 556 q 397 586 314 586 l 198 586 l 198 333 l 316 333 q 399 333 435 368 q 471 402 471 463 z"},"T":{"x_min":0,"x_max":620,"ha":620,"o":"m 599 452 l 534 447 l 514 586 l 346 586 l 346 64 l 461 64 l 461 0 l 161 0 l 161 64 l 273 64 l 273 586 l 105 586 l 85 447 l 21 452 l 40 650 l 579 650 z"},"P":{"x_min":0,"x_max":574,"ha":574,"o":"m 544 451 q 544 349 482 296 q 420 242 324 242 l 197 242 l 197 64 l 309 64 l 309 0 l 42 0 l 42 64 l 124 64 l 124 586 l 42 586 l 42 650 l 318 650 q 439 650 492 591 q 544 532 544 451 z m 466 449 q 466 512 429 549 q 392 586 312 586 l 197 586 l 197 306 l 315 306 q 466 306 466 449 z"},"|":{"x_min":0,"x_max":233,"ha":233,"o":"m 148 730 l 148 -80 l 85 -80 l 85 730 z"},"t":{"x_min":0,"x_max":371,"ha":371,"o":"m 366 120 q 348 -10 225 -10 q 158 -10 122 28 q 87 66 87 131 l 87 389 l 15 389 l 15 445 l 87 445 l 87 588 l 157 588 l 157 445 l 331 445 l 331 389 l 157 389 l 157 140 q 157 100 174 76 q 192 51 232 51 q 258 51 280 67 q 303 83 313 137 z"},"M":{"x_min":0,"x_max":882,"ha":882,"o":"m 842 586 l 757 586 l 757 64 l 838 64 l 838 0 l 607 0 l 607 64 l 683 64 l 683 478 l 679 478 l 461 33 l 422 33 l 199 481 l 195 481 l 195 64 l 273 64 l 273 0 l 43 0 l 43 64 l 125 64 l 125 586 l 40 586 l 40 650 l 189 650 l 442 141 l 446 141 l 692 650 l 842 650 z"},"g":{"x_min":0,"x_max":548,"ha":548,"o":"m 531 388 l 459 388 l 459 6 q 459 -99 402 -161 q 344 -223 240 -223 q 170 -223 114 -191 q 59 -159 41 -92 l 97 -64 q 114 -116 156 -140 q 198 -163 243 -163 q 307 -163 348 -118 q 388 -74 388 9 l 388 91 q 368 52 330 23 q 292 -6 229 -6 q 150 -6 94 50 q 38 106 38 211 q 38 300 86 377 q 134 454 237 454 q 343 454 388 375 l 388 445 l 531 445 z m 388 192 l 388 269 q 388 325 350 360 q 311 394 256 394 q 181 394 148 340 q 114 286 114 216 q 114 134 152 94 q 189 54 244 54 q 308 54 347 98 q 386 142 388 192 z"},"j":{"x_min":0,"x_max":252,"ha":252,"o":"m 101 560 l 101 651 l 177 651 l 177 560 z m 177 -13 q 177 -140 122 -186 q 68 -231 -14 -224 l -16 -170 q 12 -170 40 -161 q 68 -152 87 -118 q 106 -85 106 -13 l 106 388 l 7 388 l 7 445 l 177 445 z"},"i":{"x_min":0,"x_max":280,"ha":280,"o":"m 105 560 l 105 651 l 181 651 l 181 560 z m 260 0 l 34 0 l 34 57 l 112 57 l 112 388 l 32 388 l 32 445 l 182 445 l 182 57 l 260 57 z"},"y":{"x_min":0,"x_max":511,"ha":511,"o":"m 502 388 l 449 388 l 292 0 l 232 -156 l 308 -156 l 308 -213 l 82 -213 l 82 -156 l 165 -156 l 223 1 l 61 388 l 8 388 l 8 445 l 214 445 l 214 388 l 136 388 l 261 89 l 267 89 l 378 388 l 306 388 l 306 445 l 502 445 z"},"@":{"x_min":0,"x_max":906,"ha":906,"o":"m 298 405 q 330 427 367 440 q 404 454 461 454 q 617 454 617 305 l 617 112 q 617 40 690 40 q 733 40 757 73 q 781 106 791 155 q 801 204 801 252 q 801 386 750 462 q 698 537 620 568 q 543 599 465 599 q 304 599 202 494 q 100 390 100 224 q 100 104 152 21 q 204 -62 288 -104 q 371 -147 467 -147 q 524 -147 582 -132 q 639 -116 684 -85 l 708 -130 q 658 -163 594 -182 q 529 -202 458 -202 q 342 -202 247 -148 q 152 -95 96 0 q 40 95 40 219 q 40 339 94 438 q 148 536 243 595 q 338 654 462 654 q 550 654 642 618 q 735 582 798 498 q 861 414 861 272 q 861 208 844 143 q 827 78 786 34 q 746 -10 675 -10 q 622 -10 590 17 q 557 44 549 87 q 529 50 490 20 q 451 -10 396 -10 q 350 -10 304 17 q 258 44 258 115 q 258 171 290 200 q 321 229 370 239 q 418 249 468 249 q 488 249 508 248 q 528 247 546 246 l 546 288 q 546 339 525 370 q 504 400 451 400 q 396 400 352 372 l 333 295 l 280 301 z m 546 204 q 528 206 507 208 q 486 209 466 209 q 415 209 374 192 q 333 176 333 123 q 333 80 360 62 q 386 45 417 45 q 464 45 504 80 q 545 116 546 173 z"},".":{"x_min":0,"x_max":211,"ha":211,"o":"m 57 0 l 57 108 l 154 108 l 154 0 z"},"p":{"x_min":0,"x_max":550,"ha":550,"o":"m 512 235 q 512 176 492 120 q 471 63 426 26 q 382 -10 309 -10 q 208 -10 162 65 l 162 -156 l 265 -156 l 265 -213 l 13 -213 l 13 -156 l 92 -156 l 92 388 l 12 388 l 12 445 l 162 445 l 162 352 q 182 392 220 423 q 258 454 320 454 q 406 454 459 396 q 512 338 512 235 z m 438 229 q 438 309 399 352 q 360 394 302 394 q 242 394 203 346 q 164 299 162 248 l 162 182 q 162 126 201 88 q 240 50 295 50 q 370 50 404 104 q 438 158 438 229 z"},"X":{"x_min":0,"x_max":632,"ha":632,"o":"m 625 0 l 398 0 l 398 64 l 478 64 l 312 286 l 153 64 l 230 64 l 230 0 l 6 0 l 6 64 l 73 64 l 275 336 l 82 586 l 17 586 l 17 650 l 239 650 l 239 586 l 166 586 l 317 386 l 461 586 l 395 586 l 395 650 l 615 650 l 615 586 l 543 586 l 354 337 l 563 64 l 625 64 z"},"*":{"x_min":0,"x_max":415,"ha":415,"o":"m 369 556 l 251 489 l 369 424 l 340 379 l 230 450 l 235 333 l 180 333 l 185 449 l 76 379 l 47 424 l 165 489 l 47 556 l 76 601 l 185 528 l 180 650 l 235 650 l 229 528 l 340 601 z"},"Y":{"x_min":0,"x_max":613,"ha":613,"o":"m 610 586 l 546 586 l 344 248 l 344 64 l 458 64 l 458 0 l 159 0 l 159 64 l 271 64 l 271 249 l 60 586 l -4 586 l -4 650 l 233 650 l 233 586 l 144 586 l 308 316 l 313 316 l 472 586 l 382 586 l 382 650 l 610 650 z"},"c":{"x_min":0,"x_max":462,"ha":462,"o":"m 428 150 q 419 92 376 41 q 332 -10 240 -10 q 148 -10 93 50 q 38 109 38 216 q 38 308 90 381 q 142 454 246 454 q 290 454 327 444 q 364 434 398 408 l 415 301 l 357 294 l 340 369 q 300 394 245 394 q 174 394 143 343 q 112 292 112 220 q 112 140 147 95 q 182 50 248 50 q 348 50 368 163 z"},"!":{"x_min":0,"x_max":240,"ha":240,"o":"m 161 650 l 146 192 l 92 192 l 78 650 z m 77 0 l 77 97 l 167 97 l 167 0 z"},"/":{"x_min":0,"x_max":339,"ha":339,"o":"m 316 688 l 101 0 l 32 0 l 247 688 z"},"[":{"x_min":0,"x_max":282,"ha":282,"o":"m 84 -213 l 84 750 l 261 750 l 261 698 l 147 698 l 147 -161 l 261 -161 l 261 -213 z"},"6":{"x_min":0,"x_max":531,"ha":531,"o":"m 483 205 q 483 116 434 53 q 384 -10 273 -10 q 142 -10 95 80 q 48 170 48 307 q 48 457 102 558 q 155 660 286 660 q 348 660 392 638 q 436 616 472 572 l 429 528 q 374 597 285 597 q 192 597 159 524 q 126 450 125 314 q 124 312 124 303 q 124 294 124 293 q 139 334 180 368 q 221 403 300 403 q 399 403 441 344 q 483 285 483 205 z m 409 202 q 409 268 380 304 q 350 340 282 340 q 200 340 166 293 q 133 246 129 200 q 138 136 170 96 q 202 56 275 56 q 347 56 378 95 q 409 134 409 202 z"},"r":{"x_min":0,"x_max":420,"ha":420,"o":"m 284 453 q 332 453 360 430 l 377 318 l 320 311 l 303 387 q 286 393 269 393 q 230 393 204 360 q 178 328 178 276 l 178 57 l 281 57 l 281 0 l 30 0 l 30 57 l 108 57 l 108 388 l 28 388 l 28 445 l 174 445 l 174 365 q 187 402 216 428 q 246 453 284 453 z"},"2":{"x_min":0,"x_max":515,"ha":515,"o":"m 76 487 q 112 508 162 520 q 211 531 255 531 q 353 531 394 481 q 436 431 436 376 q 436 307 386 248 q 335 190 266 144 q 198 97 143 64 l 403 64 l 412 144 l 473 139 l 462 0 l 56 0 l 48 57 q 190 153 274 224 q 358 294 358 368 q 358 468 239 468 q 218 468 188 462 q 158 456 133 445 l 117 370 l 59 377 z"},"{":{"x_min":0,"x_max":280,"ha":280,"o":"m 110 267 q 163 258 186 234 q 208 211 208 183 q 208 150 186 102 q 165 53 144 0 q 122 -52 122 -96 q 122 -160 185 -160 l 249 -160 l 249 -212 l 185 -212 q 124 -212 93 -180 q 62 -148 62 -96 q 62 -46 83 8 q 104 61 126 108 q 147 155 147 185 q 147 224 110 236 q 72 247 49 247 l 30 247 l 30 287 l 49 287 q 72 287 110 298 q 147 309 147 348 q 147 378 126 426 q 104 475 83 530 q 62 584 62 634 q 62 750 185 750 l 249 750 l 249 698 l 185 698 q 122 698 122 634 q 122 590 144 536 q 165 482 186 433 q 208 384 208 351 q 208 323 186 299 q 164 275 110 267 z"},"9":{"x_min":0,"x_max":531,"ha":531,"o":"m 48 316 q 48 404 98 468 q 148 531 258 531 q 388 531 436 440 q 483 350 483 214 q 483 64 430 -38 q 376 -139 245 -139 q 183 -139 139 -117 q 95 -95 59 -51 l 102 -7 q 157 -76 246 -76 q 339 -76 372 -2 q 404 71 406 207 q 407 208 407 217 q 407 226 407 228 q 392 188 351 153 q 310 118 231 118 q 132 118 90 177 q 48 236 48 316 z m 122 319 q 122 253 152 217 q 182 181 249 181 q 331 181 364 228 q 398 275 402 321 q 393 385 362 425 q 330 465 256 465 q 184 465 153 426 q 122 387 122 319 z"}," ":{"x_min":0,"x_max":227,"ha":227,"o":""},"I":{"x_min":0,"x_max":322,"ha":322,"o":"m 279 0 l 42 0 l 42 64 l 124 64 l 124 586 l 42 586 l 42 650 l 279 650 l 279 586 l 198 586 l 198 64 l 279 64 z"},"H":{"x_min":0,"x_max":755,"ha":755,"o":"m 713 0 l 476 0 l 476 64 l 558 64 l 558 300 l 197 300 l 197 64 l 279 64 l 279 0 l 42 0 l 42 64 l 124 64 l 124 586 l 42 586 l 42 650 l 279 650 l 279 586 l 197 586 l 197 362 l 558 362 l 558 586 l 476 586 l 476 650 l 713 650 l 713 586 l 631 586 l 631 64 l 713 64 z"},"4":{"x_min":0,"x_max":539,"ha":539,"o":"m 408 -131 l 336 -131 l 336 34 l 27 34 l 19 96 l 252 521 l 408 521 l 408 96 l 513 96 l 505 34 l 408 34 z m 336 96 l 336 458 l 287 458 l 90 96 z"},"~":{"x_min":0,"x_max":611,"ha":611,"o":"m 417 200 q 370 200 334 218 q 299 236 264 254 q 230 271 188 271 q 164 271 140 260 q 115 248 89 207 l 47 234 q 76 288 114 312 q 152 336 192 336 q 235 336 270 318 q 304 300 339 282 q 374 265 417 265 q 448 265 472 281 q 495 297 521 342 l 567 312 q 506 200 417 200 z"},"D":{"x_min":0,"x_max":705,"ha":705,"o":"m 665 326 q 665 183 578 92 q 490 0 336 0 l 42 0 l 42 63 l 124 63 l 124 587 l 42 587 l 42 650 l 333 650 q 492 650 578 558 q 665 467 665 326 z m 587 325 q 587 443 522 515 q 456 587 332 587 l 197 587 l 197 63 l 332 63 q 456 63 522 134 q 587 204 587 325 z"},"^":{"x_min":0,"x_max":452,"ha":452,"o":"m 202 656 l 247 656 l 413 373 l 347 373 l 224 587 l 107 373 l 41 373 z"},"0":{"x_min":0,"x_max":576,"ha":576,"o":"m 529 259 q 529 135 466 62 q 403 -10 286 -10 q 168 -10 108 62 q 47 135 47 256 q 47 374 108 452 q 170 531 290 531 q 413 531 471 452 q 529 374 529 259 z m 452 262 q 452 356 412 411 q 373 466 289 466 q 206 466 166 412 q 125 359 125 261 q 125 163 166 109 q 207 55 288 55 q 452 55 452 262 z"},"F":{"x_min":0,"x_max":558,"ha":558,"o":"m 535 463 l 469 456 l 449 586 l 197 586 l 197 333 l 496 333 l 496 269 l 197 269 l 197 64 l 312 64 l 312 0 l 42 0 l 42 64 l 124 64 l 124 586 l 42 586 l 42 650 l 514 650 z"},"`":{"x_min":0,"x_max":440,"ha":440,"o":"m 352 551 l 331 520 l 158 624 l 198 683 z"},"k":{"x_min":0,"x_max":520,"ha":520,"o":"m 509 0 l 299 0 l 299 57 l 366 57 l 244 208 l 165 208 l 165 57 l 229 57 l 229 0 l 17 0 l 17 57 l 94 57 l 94 631 l 15 631 l 15 688 l 165 688 l 165 262 l 245 262 l 347 388 l 278 388 l 278 445 l 486 445 l 486 388 l 418 388 l 299 241 l 446 57 l 509 57 z"},"u":{"x_min":0,"x_max":561,"ha":561,"o":"m 546 0 l 396 0 l 396 84 q 375 42 334 16 q 294 -10 241 -10 q 176 -10 132 30 q 87 71 87 160 l 87 388 l 9 388 l 9 445 l 157 445 l 157 180 q 157 108 187 79 q 217 50 264 50 q 321 50 358 93 q 394 136 396 184 l 396 388 l 303 388 l 303 445 l 466 445 l 466 57 l 546 57 z"},"]":{"x_min":0,"x_max":282,"ha":282,"o":"m 197 -213 l 20 -213 l 20 -161 l 134 -161 l 134 698 l 20 698 l 20 750 l 197 750 z"},"U":{"x_min":0,"x_max":718,"ha":718,"o":"m 680 586 l 617 586 l 617 267 q 617 198 594 134 q 570 71 514 30 q 457 -10 357 -10 q 212 -10 158 70 q 103 151 103 256 l 103 586 l 36 586 l 36 650 l 267 650 l 267 586 l 177 586 l 177 258 q 177 162 222 109 q 267 56 361 56 q 548 56 548 267 l 548 586 l 455 586 l 455 650 l 680 650 z"},"o":{"x_min":0,"x_max":513,"ha":513,"o":"m 476 223 q 476 122 416 56 q 356 -10 253 -10 q 152 -10 94 54 q 37 118 37 219 q 37 316 93 386 q 149 455 257 455 q 366 455 421 386 q 476 318 476 223 z m 402 224 q 402 300 364 348 q 325 395 255 395 q 185 395 148 346 q 110 297 110 223 q 110 150 147 100 q 184 50 255 50 q 326 50 364 100 q 402 149 402 224 z"},"N":{"x_min":0,"x_max":738,"ha":738,"o":"m 703 586 l 622 586 l 622 0 l 575 0 l 198 512 l 194 512 l 194 64 l 297 64 l 297 0 l 49 0 l 49 64 l 124 64 l 124 586 l 38 586 l 38 650 l 178 650 l 548 149 l 552 149 l 552 586 l 454 586 l 454 650 l 703 650 z"},"+":{"x_min":0,"x_max":421,"ha":421,"o":"m 37 254 l 37 308 l 187 308 l 187 455 l 240 455 l 240 308 l 384 308 l 384 254 l 240 254 l 240 108 l 187 108 l 187 254 z"},"G":{"x_min":0,"x_max":691,"ha":691,"o":"m 664 270 l 613 270 l 613 0 l 557 0 l 548 90 q 519 47 466 18 q 412 -10 340 -10 q 206 -10 123 86 q 40 182 40 322 q 40 416 80 492 q 121 569 192 614 q 264 660 357 660 q 435 660 494 638 q 552 617 589 584 l 607 462 l 545 455 l 525 547 q 498 565 460 580 q 421 594 361 594 q 252 594 185 519 q 118 444 118 325 q 118 204 182 130 q 246 56 353 56 q 442 56 491 104 q 540 153 540 212 l 540 270 l 385 270 l 385 335 l 664 335 z"},"q":{"x_min":0,"x_max":534,"ha":534,"o":"m 527 -213 l 284 -213 l 284 -156 l 388 -156 l 388 91 q 368 50 330 20 q 292 -10 229 -10 q 146 -10 92 47 q 38 104 38 210 q 38 268 58 324 q 78 381 122 418 q 166 454 236 454 q 288 454 330 432 q 373 409 394 368 q 396 387 398 406 q 400 426 404 445 l 474 445 q 467 410 463 376 q 459 342 459 307 l 459 -156 l 527 -156 z m 388 197 l 388 264 q 388 320 348 357 q 307 394 251 394 q 178 394 145 340 q 112 286 112 217 q 112 134 151 92 q 190 50 246 50 q 309 50 348 98 q 386 147 388 197 z"},"d":{"x_min":0,"x_max":549,"ha":549,"o":"m 535 0 l 388 0 l 388 90 q 366 50 328 20 q 290 -10 229 -10 q 143 -10 90 48 q 38 107 38 211 q 38 300 84 377 q 130 454 239 454 q 343 454 388 373 l 388 631 l 280 631 l 280 688 l 458 688 l 458 57 l 535 57 z m 388 197 l 388 268 q 386 324 347 359 q 308 394 255 394 q 181 394 146 340 q 112 286 112 216 q 112 134 150 92 q 189 50 247 50 q 307 50 346 98 q 386 147 388 197 z"},"1":{"x_min":0,"x_max":385,"ha":385,"o":"m 365 0 l 52 0 l 52 64 l 174 64 l 174 457 l 52 457 l 52 521 l 248 521 l 248 64 l 365 64 z"},"5":{"x_min":0,"x_max":512,"ha":512,"o":"m 470 64 q 470 -33 414 -86 q 358 -140 257 -140 q 168 -140 118 -100 q 69 -59 57 0 l 114 20 q 128 -24 162 -51 q 197 -78 251 -78 q 323 -78 358 -40 q 392 -3 392 61 q 392 155 330 180 q 268 206 187 206 q 144 206 103 203 l 78 227 l 78 521 l 440 521 l 449 383 l 388 377 l 378 458 l 146 458 l 146 267 q 158 268 171 268 q 184 268 196 268 q 266 268 328 252 q 391 237 430 193 q 470 149 470 64 z"}}}
